<svg width="36" height="35" viewBox="0 0 36 35" fill="none" xmlns="http://www.w3.org/2000/svg">
<path d="M13.6362 32.9997C14.4395 32.9997 15.0907 32.3388 15.0907 31.5236C15.0907 30.7083 14.4395 30.0474 13.6362 30.0474C12.8329 30.0474 12.1816 30.7083 12.1816 31.5236C12.1816 32.3388 12.8329 32.9997 13.6362 32.9997Z" stroke="#2E268B" stroke-width="3" stroke-linecap="round" stroke-linejoin="round"/>
<path d="M29.6362 32.9997C30.4395 32.9997 31.0907 32.3388 31.0907 31.5236C31.0907 30.7083 30.4395 30.0474 29.6362 30.0474C28.8329 30.0474 28.1816 30.7083 28.1816 31.5236C28.1816 32.3388 28.8329 32.9997 29.6362 32.9997Z" stroke="#2E268B" stroke-width="3" stroke-linecap="round" stroke-linejoin="round"/>
<path d="M2 2H7.81818L11.7164 21.7662C11.8494 22.4458 12.2137 23.0563 12.7455 23.4908C13.2774 23.9253 13.9428 24.1561 14.6255 24.1429H28.7636C29.4463 24.1561 30.1117 23.9253 30.6436 23.4908C31.1754 23.0563 31.5397 22.4458 31.6727 21.7662L34 9.38095H9.27273" stroke="#2E268B" stroke-width="3" stroke-linecap="round" stroke-linejoin="round"/>
</svg>


