<svg width="25" height="27" viewBox="0 0 25 27" fill="none" xmlns="http://www.w3.org/2000/svg">
<path d="M16.4354 13.5006L23.3709 21.1363C23.8214 21.6323 23.8214 22.4377 23.3709 22.9337L20.9237 25.628C20.4731 26.124 19.7427 26.124 19.2911 25.628L12.3544 17.9923L5.41775 25.628C4.96722 26.124 4.2368 26.124 3.78627 25.628L1.3379 22.9337C0.887366 22.4377 0.887366 21.6335 1.3379 21.1363L8.27456 13.5006L1.3379 5.86372C0.887366 5.3677 0.887366 4.5623 1.3379 4.06629L3.78741 1.37201C4.23794 0.875996 4.96835 0.875996 5.41889 1.37201L12.3544 9.00892L19.2911 1.37201C19.7416 0.875996 20.472 0.875996 20.9237 1.37201L23.3709 4.06754C23.8214 4.56356 23.8214 5.3677 23.3709 5.86497L16.4354 13.5006Z" fill="#2E268B" stroke="#2E268B"/>
</svg>
