<svg width="36" height="35" viewBox="0 0 36 35" fill="none" xmlns="http://www.w3.org/2000/svg">
<path d="M13.6654 33.2858C14.4708 33.2858 15.1237 32.6188 15.1237 31.796C15.1237 30.9732 14.4708 30.3062 13.6654 30.3062C12.8599 30.3062 12.207 30.9732 12.207 31.796C12.207 32.6188 12.8599 33.2858 13.6654 33.2858Z" stroke="#2E268B" stroke-width="3" stroke-linecap="round" stroke-linejoin="round"/>
<path d="M29.7083 33.2858C30.5137 33.2858 31.1667 32.6188 31.1667 31.796C31.1667 30.9732 30.5137 30.3062 29.7083 30.3062C28.9029 30.3062 28.25 30.9732 28.25 31.796C28.25 32.6188 28.9029 33.2858 29.7083 33.2858Z" stroke="#2E268B" stroke-width="3" stroke-linecap="round" stroke-linejoin="round"/>
<path d="M2 2H7.83333L11.7417 21.9485C11.875 22.6344 12.2403 23.2506 12.7735 23.6891C13.3067 24.1276 13.9739 24.3605 14.6583 24.3471H28.8333C29.5177 24.3605 30.1849 24.1276 30.7181 23.6891C31.2514 23.2506 31.6166 22.6344 31.75 21.9485L34.0833 9.44904H9.29166" stroke="#2E268B" stroke-width="3" stroke-linecap="round" stroke-linejoin="round"/>
</svg>
