<svg width="24" height="24" viewBox="0 0 24 24" fill="none" xmlns="http://www.w3.org/2000/svg">
<g clip-path="url(#clip0_160_902)">
<path fill-rule="evenodd" clip-rule="evenodd" d="M12 5.99995C10.2006 3.90293 7.19377 3.25486 4.93923 5.1751C2.68468 7.09534 2.36727 10.3059 4.13778 12.577C5.60984 14.4652 10.0648 18.4477 11.5249 19.7367C11.6882 19.8809 11.7699 19.953 11.8652 19.9813C11.9483 20.006 12.0393 20.006 12.1225 19.9813C12.2178 19.953 12.2994 19.8809 12.4628 19.7367C13.9229 18.4477 18.3778 14.4652 19.8499 12.577C21.6204 10.3059 21.3417 7.07514 19.0484 5.1751C16.7551 3.27506 13.7994 3.90293 12 5.99995Z" stroke="#5B4DA3" stroke-width="2" stroke-linecap="round" stroke-linejoin="round"/>
<path d="M2 9.13686C2 13.9998 6.01943 16.5912 8.96173 18.9107C10 19.7292 11 20.4998 12 20.4998C13 20.4998 14 19.7292 15.0383 18.9107C17.9806 16.5912 22 13.9998 22 9.13686C22 4.27392 16.4998 0.825221 12 5.50039C7.50016 0.825221 2 4.27392 2 9.13686Z" fill="#DF1313"/>
</g>
<defs>
<clipPath id="clip0_160_902">
<rect width="24" height="24" fill="white"/>
</clipPath>
</defs>
</svg>
