<svg width="24" height="24" viewBox="0 0 24 24" fill="none" xmlns="http://www.w3.org/2000/svg">
<g id="SVGRepo_iconCarrier">
<path id="Vector" d="M10.2863 18.8586C12.5598 18.8586 14.7402 17.9554 16.3478 16.3478C17.9554 14.7402 18.8585 12.5599 18.8585 10.2864C18.8585 8.0129 17.9554 5.83253 16.3478 4.22493C14.7402 2.61733 12.5598 1.71419 10.2863 1.71419C8.01287 1.71419 5.8325 2.61733 4.22491 4.22493C2.61732 5.83253 1.71418 8.0129 1.71418 10.2864C1.71418 12.5599 2.61732 14.7402 4.22491 16.3478C5.8325 17.9554 8.01287 18.8586 10.2863 18.8586ZM18.2516 16.7961L24.0001 22.5446L22.5445 24.0002L16.796 18.2517C14.7527 19.9216 12.1456 20.7424 9.51411 20.5442C6.88259 20.3461 4.42789 19.1441 2.65766 17.1869C0.887441 15.2297 -0.0628826 12.6671 0.00323214 10.0289C0.0693469 7.39077 1.14684 4.87893 3.01288 3.01289C4.87891 1.14685 7.39074 0.0693472 10.0289 0.00323216C12.667 -0.0628828 15.2297 0.887445 17.1868 2.65767C19.144 4.4279 20.346 6.88262 20.5442 9.51415C20.7423 12.1457 19.9216 14.7527 18.2516 16.7961Z" fill="#7176BC"/>
</g>
</svg>
